<svg xmlns="http://www.w3.org/2000/svg" xmlns:xlink="http://www.w3.org/1999/xlink" width="64.304" height="53.604" viewBox="0 0 64.304 53.604">
  <defs>
    <linearGradient id="linear-gradient" x1="0.5" x2="0.5" y2="1" gradientUnits="objectBoundingBox">
      <stop offset="0" stop-color="#ff7621"/>
      <stop offset="1" stop-color="#cba200"/>
    </linearGradient>
    <linearGradient id="linear-gradient-2" x1="0.5" y1="0.027" x2="0.5" y2="1" gradientUnits="objectBoundingBox">
      <stop offset="0" stop-color="#21aaff"/>
      <stop offset="1" stop-color="#005eeb"/>
    </linearGradient>
  </defs>
  <g id="Group_85" data-name="Group 85" transform="translate(2211.481 -2009.316)">
    <g id="Group_81" data-name="Group 81" transform="translate(-2953.779 806.997)">
      <path id="Path_2_-_Outline" data-name="Path 2 - Outline" d="M-5.556-10A4.449,4.449,0,0,1-1.112-5.556,4.449,4.449,0,0,1-5.556-1.112,4.449,4.449,0,0,1-10-5.556,4.449,4.449,0,0,1-5.556-10Z" transform="translate(780.272 1226.057)" fill="url(#linear-gradient)"/>
      <path id="Path_2_-_Outline-2" data-name="Path 2 - Outline" d="M2.762-9.973C10-9.973,15.98,3.9,15.98,11.144S12.145-.6,2.762-.6-10.283,18.385-10.283,11.144-4.479-9.973,2.762-9.973Z" transform="translate(771.601 1212.292)" fill="url(#linear-gradient-2)"/>
    </g>
    <path id="Path_39" data-name="Path 39" d="M-12.52.24a5.246,5.246,0,0,1-2.9-.764A4.792,4.792,0,0,1-17.216-2.64a7.539,7.539,0,0,1-.608-3.12,7.539,7.539,0,0,1,.608-3.12A4.792,4.792,0,0,1-15.424-11a5.246,5.246,0,0,1,2.9-.764A5.242,5.242,0,0,1-9.612-11,4.827,4.827,0,0,1-7.82-8.88a7.5,7.5,0,0,1,.612,3.12A7.5,7.5,0,0,1-7.82-2.64,4.827,4.827,0,0,1-9.612-.524,5.242,5.242,0,0,1-12.52.24Zm0-1.128A3.916,3.916,0,0,0-10.264-1.5,3.733,3.733,0,0,0-8.908-3.22a6.643,6.643,0,0,0,.452-2.54A6.612,6.612,0,0,0-8.908-8.3a3.736,3.736,0,0,0-1.356-1.712,3.959,3.959,0,0,0-2.256-.624,3.878,3.878,0,0,0-2.248.616A3.752,3.752,0,0,0-16.116-8.3a6.743,6.743,0,0,0-.46,2.54,6.486,6.486,0,0,0,.444,2.532,3.763,3.763,0,0,0,1.356,1.712A3.94,3.94,0,0,0-12.52-.888ZM4.1,0l.008-5.672a2.16,2.16,0,0,0-.556-1.572,1.885,1.885,0,0,0-1.412-.572,2.167,2.167,0,0,0-.952.224,1.812,1.812,0,0,0-.764.72,2.48,2.48,0,0,0-.3,1.3l-.7-.2A3.11,3.11,0,0,1-.2-7.4,2.775,2.775,0,0,1,.868-8.484a3.082,3.082,0,0,1,1.548-.388,2.783,2.783,0,0,1,2.088.8A2.978,2.978,0,0,1,5.288-5.9L5.28,0ZM-6.208,0V-8.64h1.056v2.128h.128V0ZM-1.04,0l.008-5.592A2.313,2.313,0,0,0-1.58-7.22a1.869,1.869,0,0,0-1.444-.6A1.857,1.857,0,0,0-4.472-7.2a2.338,2.338,0,0,0-.552,1.628l-.7-.384a2.866,2.866,0,0,1,.392-1.492,2.828,2.828,0,0,1,1.072-1.04,3.111,3.111,0,0,1,1.544-.38,3.011,3.011,0,0,1,1.468.352A2.513,2.513,0,0,1-.24-7.5,3.355,3.355,0,0,1,.128-5.864L.12,0ZM13.016,0V-4.408a6.029,6.029,0,0,0-.136-1.324,3.136,3.136,0,0,0-.436-1.056,2.061,2.061,0,0,0-.776-.7,2.476,2.476,0,0,0-1.156-.248,2.638,2.638,0,0,0-1.1.216,2.149,2.149,0,0,0-.8.62,2.8,2.8,0,0,0-.492.98,4.69,4.69,0,0,0-.168,1.312L7.12-4.792a4.851,4.851,0,0,1,.464-2.232,3.215,3.215,0,0,1,1.28-1.368,3.72,3.72,0,0,1,1.872-.464,3.529,3.529,0,0,1,1.356.24,2.955,2.955,0,0,1,.984.648,3.353,3.353,0,0,1,.652.932,4.6,4.6,0,0,1,.36,1.112A6.251,6.251,0,0,1,14.2-4.752V0ZM6.768,0V-8.64H7.832v2.128h.12V0Zm9.08-10.28V-11.6l1.168.008.008,1.312Zm0,10.28V-8.64h1.168L17.024,0Z" transform="translate(-2178.929 2048.84)" fill="#0d0500"/>
    <path id="Path_40" data-name="Path 40" d="M-32.472,0-28.5-11.52h1.56L-22.976,0H-24.2l-3.768-10.864h.464L-31.248,0ZM-30.7-2.792V-3.9h5.952v1.1ZM-17.424,0A5.736,5.736,0,0,1-18.86.12a3.173,3.173,0,0,1-1.264-.3,1.82,1.82,0,0,1-.844-.848A2.446,2.446,0,0,1-21.22-2q-.02-.492-.02-1.124V-11.04h1.168v7.864q0,.544.012.908a1.43,1.43,0,0,0,.164.644,1.206,1.206,0,0,0,.916.64,4.9,4.9,0,0,0,1.556-.048Zm-5.664-7.632V-8.64h5.664v1.008ZM-11.976,0a5.736,5.736,0,0,1-1.436.12,3.173,3.173,0,0,1-1.264-.3,1.82,1.82,0,0,1-.844-.848A2.446,2.446,0,0,1-15.772-2q-.02-.492-.02-1.124V-11.04h1.168v7.864q0,.544.012.908a1.43,1.43,0,0,0,.164.644,1.206,1.206,0,0,0,.916.64,4.9,4.9,0,0,0,1.556-.048ZM-17.64-7.632V-8.64h5.664v1.008ZM-7.2.24A4.14,4.14,0,0,1-9.388-.32,3.792,3.792,0,0,1-10.824-1.9a5.235,5.235,0,0,1-.512-2.384,5.525,5.525,0,0,1,.5-2.448A3.737,3.737,0,0,1-9.412-8.32a4.067,4.067,0,0,1,2.164-.56,3.918,3.918,0,0,1,2.184.588A3.637,3.637,0,0,1-3.7-6.608a6.257,6.257,0,0,1,.424,2.616h-1.2v-.416A4.1,4.1,0,0,0-5.2-6.944,2.445,2.445,0,0,0-7.216-7.8a2.6,2.6,0,0,0-2.132.9,3.969,3.969,0,0,0-.74,2.576,3.883,3.883,0,0,0,.74,2.532,2.565,2.565,0,0,0,2.1.9,3.017,3.017,0,0,0,1.62-.428A2.948,2.948,0,0,0-4.536-2.552l1.1.424A3.9,3.9,0,0,1-4.948-.38,4.173,4.173,0,0,1-7.2.24Zm-3.3-4.232v-.984h6.6v.984ZM3.9,0V-4.408a6.029,6.029,0,0,0-.136-1.324,3.136,3.136,0,0,0-.436-1.056,2.061,2.061,0,0,0-.776-.7A2.476,2.476,0,0,0,1.4-7.736,2.638,2.638,0,0,0,.3-7.52a2.149,2.149,0,0,0-.8.62,2.8,2.8,0,0,0-.492.98A4.69,4.69,0,0,0-1.16-4.608l-.832-.184a4.851,4.851,0,0,1,.464-2.232A3.215,3.215,0,0,1-.248-8.392a3.72,3.72,0,0,1,1.872-.464,3.529,3.529,0,0,1,1.356.24,2.955,2.955,0,0,1,.984.648,3.353,3.353,0,0,1,.652.932,4.6,4.6,0,0,1,.36,1.112,6.251,6.251,0,0,1,.112,1.172V0ZM-2.344,0V-8.64H-1.28v2.128h.12V0ZM11.28,0A5.736,5.736,0,0,1,9.844.12a3.173,3.173,0,0,1-1.264-.3,1.82,1.82,0,0,1-.844-.848A2.446,2.446,0,0,1,7.484-2q-.02-.492-.02-1.124V-11.04H8.632v7.864q0,.544.012.908a1.43,1.43,0,0,0,.164.644,1.206,1.206,0,0,0,.916.64,4.9,4.9,0,0,0,1.556-.048ZM5.616-7.632V-8.64H11.28v1.008Zm6.936-2.648V-11.6l1.168.008.008,1.312Zm0,10.28V-8.64H13.72L13.728,0Zm6.592.24a3.994,3.994,0,0,1-2.2-.584,3.8,3.8,0,0,1-1.4-1.616,5.478,5.478,0,0,1-.488-2.368,5.409,5.409,0,0,1,.5-2.384,3.774,3.774,0,0,1,1.412-1.6,4.032,4.032,0,0,1,2.18-.572,4.051,4.051,0,0,1,2.212.58,3.743,3.743,0,0,1,1.4,1.608,5.49,5.49,0,0,1,.484,2.364,5.511,5.511,0,0,1-.488,2.388,3.734,3.734,0,0,1-1.408,1.6A4.062,4.062,0,0,1,19.144.24Zm0-1.128a2.488,2.488,0,0,0,2.144-.956,4.086,4.086,0,0,0,.7-2.484,4.015,4.015,0,0,0-.708-2.5,2.521,2.521,0,0,0-2.14-.928,2.736,2.736,0,0,0-1.6.436,2.6,2.6,0,0,0-.936,1.208,4.778,4.778,0,0,0-.308,1.78,4.006,4.006,0,0,0,.72,2.5A2.505,2.505,0,0,0,19.144-.888ZM30.648,0V-4.408a6.029,6.029,0,0,0-.136-1.324,3.136,3.136,0,0,0-.436-1.056,2.061,2.061,0,0,0-.776-.7,2.476,2.476,0,0,0-1.156-.248,2.638,2.638,0,0,0-1.1.216,2.149,2.149,0,0,0-.8.62,2.8,2.8,0,0,0-.492.98,4.69,4.69,0,0,0-.168,1.312l-.832-.184a4.851,4.851,0,0,1,.464-2.232A3.215,3.215,0,0,1,26.5-8.392a3.72,3.72,0,0,1,1.872-.464,3.529,3.529,0,0,1,1.356.24,2.955,2.955,0,0,1,.984.648,3.353,3.353,0,0,1,.652.932,4.6,4.6,0,0,1,.36,1.112,6.251,6.251,0,0,1,.112,1.172V0ZM24.4,0V-8.64h1.064v2.128h.12V0Z" transform="translate(-2179.009 2062.68)" fill="#0d0500"/>
  </g>
</svg>
